<?xml version="1.0" encoding="utf-8"?>
<!-- Generator: Adobe Illustrator 14.0.0, SVG Export Plug-In . SVG Version: 6.00 Build 43363)  -->
<!DOCTYPE svg PUBLIC "-//W3C//DTD SVG 1.1//EN" "http://www.w3.org/Graphics/SVG/1.1/DTD/svg11.dtd">
<svg version="1.1" id="Layer_1" xmlns="http://www.w3.org/2000/svg" xmlns:xlink="http://www.w3.org/1999/xlink" x="0px" y="0px"
	 width="50px" height="50px" viewBox="0 0 50 50" enable-background="new 0 0 50 50" xml:space="preserve">
<g>
	<g>
		<g>
			<g>
				<defs>
					<rect id="SVGID_1_" y="-0.26" width="50" height="50.26"/>
				</defs>
				<clipPath id="SVGID_2_">
					<use xlink:href="#SVGID_1_"  overflow="visible"/>
				</clipPath>
				
					<line clip-path="url(#SVGID_2_)" fill="none" stroke="#000000" stroke-width="3" stroke-dasharray="4,4,4,4,4,4" x1="40.05" y1="32.725" x2="-7.062" y2="32.725"/>
			</g>
		</g>
	</g>
	<g>
		<g>
			<g>
				<defs>
					<rect id="SVGID_3_" y="-0.26" width="50" height="50.26"/>
				</defs>
				<clipPath id="SVGID_4_">
					<use xlink:href="#SVGID_3_"  overflow="visible"/>
				</clipPath>
				<polygon clip-path="url(#SVGID_4_)" fill="#010101" points="38.775,36.542 45.389,32.729 38.775,28.904 36.271,27.463 
					36.271,25.089 42.881,28.904 49.493,32.729 42.881,36.542 36.271,40.357 36.271,37.986 				"/>
			</g>
		</g>
	</g>
	<g>
		<g>
			<g>
				<defs>
					<rect id="SVGID_5_" y="-0.26" width="50" height="50.26"/>
				</defs>
				<clipPath id="SVGID_6_">
					<use xlink:href="#SVGID_5_"  overflow="visible"/>
				</clipPath>
				<polygon clip-path="url(#SVGID_6_)" points="7.254,21.761 3.222,19.433 7.254,17.104 8.782,16.222 8.782,14.775 4.75,17.104 
					0.717,19.433 4.75,21.761 8.782,24.089 8.782,22.643 				"/>
			</g>
		</g>
	</g>
	<g>
		<g>
			<g>
				<defs>
					<rect id="SVGID_7_" y="-0.26" width="50" height="50.26"/>
				</defs>
				<clipPath id="SVGID_8_">
					<use xlink:href="#SVGID_7_"  overflow="visible"/>
				</clipPath>
				<polygon clip-path="url(#SVGID_8_)" points="15.071,21.761 11.039,19.433 15.071,17.104 16.599,16.222 16.599,14.775 
					12.567,17.104 8.535,19.433 12.567,21.761 16.599,24.089 16.599,22.643 				"/>
			</g>
		</g>
	</g>
	<g>
		<g>
			<g>
				<defs>
					<rect id="SVGID_9_" y="-0.26" width="50" height="50.26"/>
				</defs>
				<clipPath id="SVGID_10_">
					<use xlink:href="#SVGID_9_"  overflow="visible"/>
				</clipPath>
				<polygon clip-path="url(#SVGID_10_)" points="43.463,21.761 47.496,19.433 43.463,17.104 41.936,16.222 41.936,14.775 
					45.967,17.104 50,19.433 45.967,21.761 41.936,24.089 41.936,22.643 				"/>
			</g>
		</g>
	</g>
	<g>
		<g>
			<g>
				<defs>
					<rect id="SVGID_11_" y="-0.26" width="50" height="50.26"/>
				</defs>
				<clipPath id="SVGID_12_">
					<use xlink:href="#SVGID_11_"  overflow="visible"/>
				</clipPath>
				<polygon clip-path="url(#SVGID_12_)" points="35.646,21.761 39.678,19.433 35.646,17.104 34.117,16.222 34.117,14.775 
					38.148,17.104 42.184,19.433 38.148,21.761 34.117,24.089 34.117,22.643 				"/>
			</g>
		</g>
	</g>
	<g>
		<g>
			<g>
				<defs>
					<rect id="SVGID_13_" y="-0.26" width="50" height="50.26"/>
				</defs>
				<clipPath id="SVGID_14_">
					<use xlink:href="#SVGID_13_"  overflow="visible"/>
				</clipPath>
				<g clip-path="url(#SVGID_14_)">
					<g enable-background="new    ">
						<path d="M22.146,14.733l-3.393-0.612c0.381-1.366,1.038-2.376,1.97-3.033c0.931-0.656,2.314-0.984,4.149-0.984
							c1.668,0,2.909,0.198,3.725,0.592c0.816,0.395,1.392,0.896,1.723,1.503c0.334,0.607,0.5,1.723,0.5,3.346l-0.041,4.363
							c0,1.242,0.062,2.158,0.18,2.748c0.121,0.59,0.346,1.221,0.673,1.895h-3.698c-0.098-0.248-0.217-0.616-0.358-1.104
							c-0.062-0.222-0.106-0.368-0.134-0.439c-0.637,0.621-1.32,1.086-2.047,1.396c-0.729,0.311-1.504,0.466-2.33,0.466
							c-1.455,0-2.601-0.395-3.438-1.184c-0.838-0.789-1.257-1.787-1.257-2.993c0-0.798,0.189-1.51,0.572-2.134
							c0.381-0.626,0.916-1.104,1.603-1.437c0.688-0.333,1.68-0.623,2.973-0.872c1.748-0.328,2.959-0.634,3.631-0.918v-0.373
							c0-0.718-0.176-1.23-0.531-1.536c-0.354-0.306-1.023-0.459-2.008-0.459c-0.666,0-1.185,0.131-1.557,0.393
							C22.678,13.618,22.376,14.077,22.146,14.733z M27.146,17.767c-0.479,0.16-1.236,0.35-2.273,0.572
							c-1.038,0.222-1.716,0.439-2.035,0.652c-0.488,0.346-0.732,0.785-0.732,1.317c0,0.523,0.195,0.976,0.586,1.357
							c0.39,0.381,0.887,0.572,1.49,0.572c0.674,0,1.315-0.222,1.928-0.665c0.453-0.337,0.75-0.75,0.893-1.237
							c0.098-0.319,0.146-0.927,0.146-1.823v-0.745H27.146z"/>
					</g>
				</g>
			</g>
		</g>
	</g>
</g>
</svg>
