<?xml version="1.0" encoding="utf-8"?>
<!-- Generator: Adobe Illustrator 14.0.0, SVG Export Plug-In . SVG Version: 6.00 Build 43363)  -->
<!DOCTYPE svg PUBLIC "-//W3C//DTD SVG 1.1//EN" "http://www.w3.org/Graphics/SVG/1.1/DTD/svg11.dtd">
<svg version="1.1" id="Layer_1" xmlns="http://www.w3.org/2000/svg" xmlns:xlink="http://www.w3.org/1999/xlink" x="0px" y="0px"
	 width="50px" height="50px" viewBox="0 0 50 50" enable-background="new 0 0 50 50" xml:space="preserve">
<g>
	<g>
		<g>
			<g>
				<g>
					<defs>
						<rect id="SVGID_1_" y="-0.26" width="50" height="50.26"/>
					</defs>
					<clipPath id="SVGID_2_">
						<use xlink:href="#SVGID_1_"  overflow="visible"/>
					</clipPath>
					
						<line clip-path="url(#SVGID_2_)" fill="none" stroke="#000000" stroke-width="3" stroke-dasharray="4,4,4,4,4,4" x1="40.05" y1="32.725" x2="-7.062" y2="32.725"/>
				</g>
			</g>
		</g>
	</g>
	<g>
		<g>
			<g>
				<g>
					<defs>
						<rect id="SVGID_3_" y="-0.26" width="50" height="50.26"/>
					</defs>
					<clipPath id="SVGID_4_">
						<use xlink:href="#SVGID_3_"  overflow="visible"/>
					</clipPath>
					<polygon clip-path="url(#SVGID_4_)" fill="#010101" points="38.775,36.542 45.389,32.729 38.775,28.904 36.271,27.463 
						36.271,25.089 42.881,28.904 49.493,32.729 42.881,36.542 36.271,40.357 36.271,37.986 					"/>
				</g>
			</g>
		</g>
	</g>
	<g>
		<g>
			<g>
				<g>
					<defs>
						<rect id="SVGID_5_" y="-0.26" width="50" height="50.26"/>
					</defs>
					<clipPath id="SVGID_6_">
						<use xlink:href="#SVGID_5_"  overflow="visible"/>
					</clipPath>
				</g>
			</g>
		</g>
	</g>
	<g>
		<g>
			<g>
				<g>
					<defs>
						<rect id="SVGID_7_" y="-0.26" width="50" height="50.26"/>
					</defs>
					<clipPath id="SVGID_8_">
						<use xlink:href="#SVGID_7_"  overflow="visible"/>
					</clipPath>
				</g>
			</g>
		</g>
	</g>
	<g>
		<g>
			<g>
				<g>
					<defs>
						<rect id="SVGID_9_" y="-0.26" width="50" height="50.26"/>
					</defs>
					<clipPath id="SVGID_10_">
						<use xlink:href="#SVGID_9_"  overflow="visible"/>
					</clipPath>
				</g>
			</g>
		</g>
	</g>
	<g>
		<g>
			<g>
				<g>
					<defs>
						<rect id="SVGID_11_" y="-0.26" width="50" height="50.26"/>
					</defs>
					<clipPath id="SVGID_12_">
						<use xlink:href="#SVGID_11_"  overflow="visible"/>
					</clipPath>
				</g>
			</g>
		</g>
	</g>
</g>
<g>
	<g enable-background="new    ">
		<path d="M19.674,24.917V7h3.435v6.453c1.059-1.206,2.313-1.809,3.764-1.809c1.581,0,2.891,0.572,3.925,1.717
			c1.035,1.145,1.552,2.789,1.552,4.932c0,2.216-0.527,3.923-1.582,5.121c-1.057,1.198-2.338,1.797-3.846,1.797
			c-0.74,0-1.472-0.186-2.193-0.557c-0.721-0.37-1.343-0.918-1.864-1.644v1.907H19.674z M23.084,18.146
			c0,1.345,0.212,2.338,0.636,2.982c0.595,0.913,1.384,1.369,2.37,1.369c0.758,0,1.404-0.323,1.938-0.972
			c0.535-0.646,0.802-1.668,0.802-3.061c0-1.483-0.271-2.552-0.808-3.208c-0.537-0.656-1.226-0.984-2.063-0.984
			c-0.823,0-1.508,0.32-2.054,0.959C23.357,15.871,23.084,16.843,23.084,18.146z"/>
	</g>
</g>
<polygon points="8.167,22.104 4.135,18.444 8.167,14.781 9.695,13.395 9.695,11.119 5.663,14.781 1.629,18.444 5.663,22.104 
	9.695,25.766 9.695,23.492 "/>
<polygon points="14.917,22.104 10.885,18.444 14.917,14.781 16.445,13.395 16.445,11.119 12.413,14.781 8.379,18.444 12.413,22.104 
	16.445,25.766 16.445,23.492 "/>
<polygon points="40.963,23.492 40.963,25.766 44.994,22.104 49.027,18.444 44.994,14.781 40.963,11.119 40.963,13.395 42.49,14.781 
	46.522,18.444 42.49,22.104 "/>
<polygon points="34.213,23.492 34.213,25.766 38.244,22.104 42.277,18.444 38.244,14.781 34.213,11.119 34.213,13.395 35.74,14.781 
	39.772,18.444 35.74,22.104 "/>
</svg>
