<?xml version="1.0" encoding="UTF-8" standalone="no"?>
<!-- Generator: Adobe Illustrator 14.0.0, SVG Export Plug-In . SVG Version: 6.00 Build 43363)  -->

<svg
   xmlns:dc="http://purl.org/dc/elements/1.1/"
   xmlns:cc="http://creativecommons.org/ns#"
   xmlns:rdf="http://www.w3.org/1999/02/22-rdf-syntax-ns#"
   xmlns:svg="http://www.w3.org/2000/svg"
   xmlns="http://www.w3.org/2000/svg"
   xmlns:sodipodi="http://sodipodi.sourceforge.net/DTD/sodipodi-0.dtd"
   xmlns:inkscape="http://www.inkscape.org/namespaces/inkscape"
   version="1.1"
   id="Layer_1"
   x="0px"
   y="0px"
   width="18"
   height="18"
   viewBox="0 0 18 18"
   enable-background="new 0 0 50 50"
   xml:space="preserve"
   inkscape:version="0.91 r13725"
   sodipodi:docname="Primitive.svg"><metadata
     id="metadata40"><rdf:RDF><cc:Work
         rdf:about=""><dc:format>image/svg+xml</dc:format><dc:type
           rdf:resource="http://purl.org/dc/dcmitype/StillImage" /><dc:title></dc:title></cc:Work></rdf:RDF></metadata><defs
     id="defs38" /><sodipodi:namedview
     pagecolor="#ffffff"
     bordercolor="#666666"
     borderopacity="1"
     objecttolerance="10"
     gridtolerance="10"
     guidetolerance="10"
     inkscape:pageopacity="0"
     inkscape:pageshadow="2"
     inkscape:window-width="1280"
     inkscape:window-height="646"
     id="namedview36"
     showgrid="false"
     inkscape:zoom="9.0566038"
     inkscape:cx="26.5"
     inkscape:cy="26.5"
     inkscape:window-x="1840"
     inkscape:window-y="580"
     inkscape:window-maximized="0"
     inkscape:current-layer="Layer_1" /><linearGradient
     id="SVGID_1_"
     gradientUnits="userSpaceOnUse"
     x1="306.0332"
     y1="-322.61179"
     x2="306.0332"
     y2="-369.66101"
     gradientTransform="matrix(0.31756603,0,0,-0.31756603,-88.134397,-100.80068)"><stop
       offset="0"
       style="stop-color:#67A8DC"
       id="stop4" /><stop
       offset="1"
       style="stop-color:#3E86C6"
       id="stop6" /></linearGradient><rect
     x="2.8098445"
     y="1.4203343"
     width="12.483202"
     height="15.159331"
     id="rect8"
     style="fill:url(#SVGID_1_);stroke:#2e6cae;stroke-width:0.63513207" /><line
     x1="2.8098445"
     y1="13.237284"
     x2="15.293047"
     y2="13.237284"
     id="line10"
     style="fill:none;stroke:#2e6cae;stroke-width:0.31756604" /><linearGradient
     id="SVGID_2_"
     gradientUnits="userSpaceOnUse"
     x1="326.83691"
     y1="-345.61819"
     x2="282.4845"
     y2="-334.59421"
     gradientTransform="matrix(0.31756602,0,0,-0.31756602,-88.134394,-100.80067)"><stop
       offset="0"
       style="stop-color:#FFFFFF"
       id="stop13" /><stop
       offset="1"
       style="stop-color:#FFFFFF;stop-opacity:0"
       id="stop15" /></linearGradient><rect
     x="3.0203903"
     y="1.5953134"
     enable-background="new    "
     width="12.03861"
     height="11.431107"
     id="rect17"
     style="opacity:0.4;fill:url(#SVGID_2_)" /><linearGradient
     id="SVGID_3_"
     gradientUnits="userSpaceOnUse"
     x1="323.8721"
     y1="-368.814"
     x2="285.82709"
     y2="-359.3577"
     gradientTransform="matrix(0.31756602,0,0,-0.31756602,-88.134394,-100.80067)"><stop
       offset="0"
       style="stop-color:#FFFFFF"
       id="stop20" /><stop
       offset="1"
       style="stop-color:#FFFFFF;stop-opacity:0"
       id="stop22" /></linearGradient><rect
     x="3.0203903"
     y="13.452276"
     enable-background="new    "
     width="12.03861"
     height="2.9171615"
     id="rect24"
     style="opacity:0.4;fill:url(#SVGID_3_)" /><rect
     x="5.0540838"
     y="11.31982"
     width="7.9947243"
     height="0.93459684"
     id="rect26"
     style="fill:#5a6063" /><polygon
     points="12.239,19.128 5.833,13.625 12.239,8.122 14.666,6.038 14.666,2.619 8.262,8.122 1.854,13.625 8.262,19.128 14.666,24.629 14.666,21.212 "
     id="polygon28"
     style="fill:#010101"
     transform="matrix(0.31756602,0,0,0.31756602,1.1016567,1.1380182)" /><polygon
     points="37.443,19.128 43.889,13.625 37.443,8.122 35.005,6.038 35.005,2.619 41.445,8.122 47.889,13.625 41.445,19.128 35.005,24.629 35.005,21.212 "
     id="polygon30"
     style="fill:#010101"
     transform="matrix(0.31756602,0,0,0.31756602,1.1016567,1.1380182)" /><g
     id="g32"
     transform="matrix(0.31756602,0,0,0.31756602,1.1016567,1.1380182)"><path
       d="m 18.293,27.5 0,-24.59 6.141,0 c 2.328,0 3.843,0.1 4.55,0.297 1.086,0.297 1.996,0.942 2.729,1.936 0.733,0.994 1.1,2.279 1.1,3.853 0,1.214 -0.211,2.235 -0.633,3.063 -0.424,0.827 -0.959,1.477 -1.609,1.949 -0.651,0.473 -1.312,0.785 -1.984,0.938 -0.914,0.189 -2.236,0.283 -3.969,0.283 l -2.496,0 0,12.271 -3.829,0 z m 3.826,-21.244 0,5.613 2.095,0 c 1.509,0 2.517,-0.104 3.024,-0.311 0.509,-0.207 0.908,-0.53 1.195,-0.971 0.289,-0.441 0.435,-0.953 0.435,-1.539 0,-0.719 -0.203,-1.312 -0.606,-1.781 C 27.856,6.8 27.343,6.507 26.723,6.39 26.266,6.3 25.348,6.255 23.969,6.255 l -1.85,0.001 0,0 z"
       id="path34"
       inkscape:connector-curvature="0"
       style="fill:#010101" /></g></svg>