<?xml version="1.0" encoding="UTF-8" standalone="no"?>
<!-- Generator: Adobe Illustrator 14.0.0, SVG Export Plug-In . SVG Version: 6.00 Build 43363)  -->

<svg
   xmlns:dc="http://purl.org/dc/elements/1.1/"
   xmlns:cc="http://creativecommons.org/ns#"
   xmlns:rdf="http://www.w3.org/1999/02/22-rdf-syntax-ns#"
   xmlns:svg="http://www.w3.org/2000/svg"
   xmlns="http://www.w3.org/2000/svg"
   xmlns:sodipodi="http://sodipodi.sourceforge.net/DTD/sodipodi-0.dtd"
   xmlns:inkscape="http://www.inkscape.org/namespaces/inkscape"
   version="1.1"
   id="Layer_1"
   x="0px"
   y="0px"
   width="18"
   height="18"
   viewBox="0 0 18 18"
   enable-background="new 0 0 50 50"
   xml:space="preserve"
   inkscape:version="0.91 r13725"
   sodipodi:docname="Enumeration.svg"><metadata
     id="metadata40"><rdf:RDF><cc:Work
         rdf:about=""><dc:format>image/svg+xml</dc:format><dc:type
           rdf:resource="http://purl.org/dc/dcmitype/StillImage" /><dc:title></dc:title></cc:Work></rdf:RDF></metadata><defs
     id="defs38" /><sodipodi:namedview
     pagecolor="#ffffff"
     bordercolor="#666666"
     borderopacity="1"
     objecttolerance="10"
     gridtolerance="10"
     guidetolerance="10"
     inkscape:pageopacity="0"
     inkscape:pageshadow="2"
     inkscape:window-width="1280"
     inkscape:window-height="646"
     id="namedview36"
     showgrid="false"
     inkscape:zoom="4.72"
     inkscape:cx="-11.864407"
     inkscape:cy="25"
     inkscape:window-x="1989"
     inkscape:window-y="505"
     inkscape:window-maximized="0"
     inkscape:current-layer="Layer_1" /><linearGradient
     id="SVGID_1_"
     gradientUnits="userSpaceOnUse"
     x1="587.0332"
     y1="743.61133"
     x2="587.0332"
     y2="790.66052"
     gradientTransform="matrix(0.31886755,0,0,0.31886755,-178.13427,-235.49392)"><stop
       offset="0"
       style="stop-color:#67A8DC"
       id="stop4" /><stop
       offset="1"
       style="stop-color:#3E86C6"
       id="stop6" /></linearGradient><rect
     x="2.7844744"
     y="1.3892694"
     width="12.534364"
     height="15.221461"
     id="rect8"
     style="fill:url(#SVGID_1_);stroke:#2e6cae;stroke-width:0.63773513" /><line
     x1="2.7844744"
     y1="13.25465"
     x2="15.318839"
     y2="13.25465"
     id="line10"
     style="fill:none;stroke:#2e6cae;stroke-width:0.31886756" /><linearGradient
     id="SVGID_2_"
     gradientUnits="userSpaceOnUse"
     x1="607.83789"
     y1="766.61823"
     x2="563.48547"
     y2="755.59418"
     gradientTransform="matrix(0.31886755,0,0,0.31886755,-178.13428,-235.49393)"><stop
       offset="0"
       style="stop-color:#FFFFFF"
       id="stop13" /><stop
       offset="1"
       style="stop-color:#FFFFFF;stop-opacity:0"
       id="stop15" /></linearGradient><rect
     x="2.9958835"
     y="1.5649656"
     enable-background="new    "
     width="12.08795"
     height="11.477956"
     id="rect17"
     style="opacity:0.4;fill:url(#SVGID_2_)" /><linearGradient
     id="SVGID_3_"
     gradientUnits="userSpaceOnUse"
     x1="604.87299"
     y1="789.8125"
     x2="566.828"
     y2="780.3562"
     gradientTransform="matrix(0.31886755,0,0,0.31886755,-178.13428,-235.49393)"><stop
       offset="0"
       style="stop-color:#FFFFFF"
       id="stop20" /><stop
       offset="1"
       style="stop-color:#FFFFFF;stop-opacity:0"
       id="stop22" /></linearGradient><rect
     x="2.9958835"
     y="13.470524"
     enable-background="new    "
     width="12.08795"
     height="2.9291172"
     id="rect24"
     style="opacity:0.4;fill:url(#SVGID_3_)" /><rect
     x="5.0379114"
     y="11.329329"
     width="8.0274906"
     height="0.93810833"
     id="rect26"
     style="fill:#5a6063" /><polygon
     points="12.239,19.128 5.833,13.625 12.239,8.122 14.666,6.038 14.666,2.619 8.262,8.122 1.854,13.625 8.262,19.128 14.666,24.629 14.666,21.212 "
     id="polygon28"
     style="fill:#010101"
     transform="matrix(0.31886755,0,0,0.31886755,1.0692857,1.1057961)" /><polygon
     points="37.443,19.128 43.889,13.625 37.443,8.122 35.005,6.038 35.005,2.619 41.445,8.122 47.889,13.625 41.445,19.128 35.005,24.629 35.005,21.212 "
     id="polygon30"
     style="fill:#010101"
     transform="matrix(0.31886755,0,0,0.31886755,1.0692857,1.1057961)" /><g
     enable-background="new    "
     id="g32"
     transform="matrix(0.31886755,0,0,0.31886755,1.0692857,1.1057961)"><path
       d="m 27.738,20.994 4.122,0.811 c -0.53,1.771 -1.367,3.12 -2.511,4.046 -1.144,0.926 -2.574,1.389 -4.292,1.389 -2.719,0 -4.731,-1.041 -6.037,-3.123 -1.031,-1.667 -1.546,-3.772 -1.546,-6.314 0,-3.037 0.677,-5.415 2.032,-7.134 1.354,-1.72 3.067,-2.58 5.139,-2.58 2.327,0 4.162,0.9 5.506,2.7 1.345,1.8 1.988,4.558 1.929,8.272 l -10.364,0 c 0.029,1.438 0.363,2.557 1.001,3.355 0.638,0.8 1.433,1.199 2.385,1.199 0.648,0 1.193,-0.207 1.634,-0.621 0.441,-0.414 0.776,-1.08 1.002,-2 z m 0.235,-4.9 c -0.029,-1.403 -0.338,-2.47 -0.927,-3.2 -0.589,-0.73 -1.306,-1.096 -2.15,-1.096 -0.903,0 -1.649,0.385 -2.238,1.156 -0.589,0.771 -0.878,1.817 -0.869,3.14 l 6.184,0 z"
       id="path34"
       inkscape:connector-curvature="0"
       style="fill:#010101" /></g></svg>