<?xml version="1.0" encoding="utf-8"?>
<!-- Generator: Adobe Illustrator 14.0.0, SVG Export Plug-In . SVG Version: 6.00 Build 43363)  -->
<!DOCTYPE svg PUBLIC "-//W3C//DTD SVG 1.1//EN" "http://www.w3.org/Graphics/SVG/1.1/DTD/svg11.dtd">
<svg version="1.1" id="Layer_1" xmlns="http://www.w3.org/2000/svg" xmlns:xlink="http://www.w3.org/1999/xlink" x="0px" y="0px"
	 width="50px" height="50px" viewBox="0 0 50 50" enable-background="new 0 0 50 50" xml:space="preserve">
<g>
	<g>
		<g>
			<g>
				<g>
					<defs>
						<rect id="SVGID_1_" y="-0.26" width="50" height="50.26"/>
					</defs>
					<clipPath id="SVGID_2_">
						<use xlink:href="#SVGID_1_"  overflow="visible"/>
					</clipPath>
					
						<line clip-path="url(#SVGID_2_)" fill="none" stroke="#000000" stroke-width="3" stroke-dasharray="4,4,4,4,4,4" x1="40.05" y1="32.725" x2="-7.062" y2="32.725"/>
				</g>
			</g>
		</g>
	</g>
	<g>
		<g>
			<g>
				<g>
					<defs>
						<rect id="SVGID_3_" y="-0.26" width="50" height="50.26"/>
					</defs>
					<clipPath id="SVGID_4_">
						<use xlink:href="#SVGID_3_"  overflow="visible"/>
					</clipPath>
					<polygon clip-path="url(#SVGID_4_)" fill="#010101" points="38.775,36.542 45.389,32.729 38.775,28.904 36.271,27.463 
						36.271,25.089 42.881,28.904 49.493,32.729 42.881,36.542 36.271,40.357 36.271,37.986 					"/>
				</g>
			</g>
		</g>
	</g>
	<g>
		<g>
			<g>
				<g>
					<defs>
						<rect id="SVGID_5_" y="-0.26" width="50" height="50.26"/>
					</defs>
					<clipPath id="SVGID_6_">
						<use xlink:href="#SVGID_5_"  overflow="visible"/>
					</clipPath>
				</g>
			</g>
		</g>
	</g>
	<g>
		<g>
			<g>
				<g>
					<defs>
						<rect id="SVGID_7_" y="-0.26" width="50" height="50.26"/>
					</defs>
					<clipPath id="SVGID_8_">
						<use xlink:href="#SVGID_7_"  overflow="visible"/>
					</clipPath>
				</g>
			</g>
		</g>
	</g>
	<g>
		<g>
			<g>
				<g>
					<defs>
						<rect id="SVGID_9_" y="-0.26" width="50" height="50.26"/>
					</defs>
					<clipPath id="SVGID_10_">
						<use xlink:href="#SVGID_9_"  overflow="visible"/>
					</clipPath>
				</g>
			</g>
		</g>
	</g>
	<g>
		<g>
			<g>
				<g>
					<defs>
						<rect id="SVGID_11_" y="-0.26" width="50" height="50.26"/>
					</defs>
					<clipPath id="SVGID_12_">
						<use xlink:href="#SVGID_11_"  overflow="visible"/>
					</clipPath>
				</g>
			</g>
		</g>
	</g>
	<g>
		<g>
			<g>
				<g>
					<defs>
						<rect id="SVGID_13_" y="-0.26" width="50" height="50.26"/>
					</defs>
					<clipPath id="SVGID_14_">
						<use xlink:href="#SVGID_13_"  overflow="visible"/>
					</clipPath>
					<g clip-path="url(#SVGID_14_)">
						<g enable-background="new    ">
							<path d="M31.725,24.989h-3.386v-2.023c-0.562,0.787-1.226,1.373-1.989,1.758c-0.767,0.383-1.538,0.576-2.315,0.576
								c-1.582,0-2.937-0.637-4.065-1.914c-1.128-1.273-1.692-3.053-1.692-5.335c0-2.334,0.549-4.108,1.647-5.323
								c1.098-1.215,2.485-1.822,4.163-1.822c1.539,0,2.87,0.64,3.994,1.919V5.979h3.644V24.989L31.725,24.989z M21.998,17.805
								c0,1.47,0.203,2.533,0.609,3.19c0.588,0.951,1.409,1.426,2.464,1.426c0.839,0,1.552-0.357,2.14-1.069
								c0.588-0.715,0.882-1.78,0.882-3.197c0-1.582-0.284-2.721-0.854-3.417c-0.571-0.696-1.303-1.044-2.192-1.044
								c-0.865,0-1.588,0.344-2.172,1.031S21.998,16.438,21.998,17.805z"/>
						</g>
					</g>
				</g>
			</g>
		</g>
	</g>
</g>
<polygon points="7.838,22.271 3.807,18.611 7.838,14.948 9.367,13.562 9.367,11.286 5.334,14.948 1.301,18.611 5.334,22.271 
	9.367,25.933 9.367,23.659 "/>
<polygon points="14.588,22.271 10.557,18.611 14.588,14.948 16.117,13.562 16.117,11.286 12.084,14.948 8.051,18.611 12.084,22.271 
	16.117,25.933 16.117,23.659 "/>
<polygon points="40.635,23.659 40.635,25.933 44.666,22.271 48.699,18.611 44.666,14.948 40.635,11.286 40.635,13.562 
	42.162,14.948 46.194,18.611 42.162,22.271 "/>
<polygon points="33.885,23.659 33.885,25.933 37.916,22.271 41.949,18.611 37.916,14.948 33.885,11.286 33.885,13.562 
	35.412,14.948 39.444,18.611 35.412,22.271 "/>
</svg>
