<?xml version="1.0" encoding="UTF-8" standalone="no"?>
<!-- Generator: Adobe Illustrator 14.0.0, SVG Export Plug-In . SVG Version: 6.00 Build 43363)  -->

<svg
   xmlns:dc="http://purl.org/dc/elements/1.1/"
   xmlns:cc="http://creativecommons.org/ns#"
   xmlns:rdf="http://www.w3.org/1999/02/22-rdf-syntax-ns#"
   xmlns:svg="http://www.w3.org/2000/svg"
   xmlns="http://www.w3.org/2000/svg"
   xmlns:sodipodi="http://sodipodi.sourceforge.net/DTD/sodipodi-0.dtd"
   xmlns:inkscape="http://www.inkscape.org/namespaces/inkscape"
   version="1.1"
   id="Layer_1"
   x="0px"
   y="0px"
   width="53"
   height="53"
   viewBox="0 0 53 53"
   enable-background="new 0 0 50 50"
   xml:space="preserve"
   inkscape:version="0.91 r13725"
   sodipodi:docname="EntityBeanClass.svg"><metadata
     id="metadata36"><rdf:RDF><cc:Work
         rdf:about=""><dc:format>image/svg+xml</dc:format><dc:type
           rdf:resource="http://purl.org/dc/dcmitype/StillImage" /><dc:title></dc:title></cc:Work></rdf:RDF></metadata><defs
     id="defs34" /><sodipodi:namedview
     pagecolor="#ffffff"
     bordercolor="#666666"
     borderopacity="1"
     objecttolerance="10"
     gridtolerance="10"
     guidetolerance="10"
     inkscape:pageopacity="0"
     inkscape:pageshadow="2"
     inkscape:window-width="1280"
     inkscape:window-height="646"
     id="namedview32"
     showgrid="false"
     inkscape:zoom="4.72"
     inkscape:cx="-11.864407"
     inkscape:cy="25"
     inkscape:window-x="2172"
     inkscape:window-y="487"
     inkscape:window-maximized="0"
     inkscape:current-layer="Layer_1" /><linearGradient
     id="SVGID_1_"
     gradientUnits="userSpaceOnUse"
     x1="705.95117"
     y1="682.44141"
     x2="668.99103"
     y2="711.75452"
     gradientTransform="matrix(0.9434332,0,0,0.9434332,-626.12025,-631.072)"><stop
       offset="0"
       style="stop-color:#DFC723"
       id="stop4" /><stop
       offset="1"
       style="stop-color:#F2E89C"
       id="stop6" /></linearGradient><path
     d="m 22.580649,4.9472686 c -8.994692,0 -16.2864883,1.9010179 -16.2864883,4.2454499 l 0,5.1105765 0,24.394353 0,5.109634 c 0,2.345375 7.2917963,4.245449 16.2864883,4.245449 8.995635,0 16.286487,-1.900074 16.286487,-4.245449 l 0,-5.109634 0,-24.394353 0,-5.1105765 c 0,-2.344432 -7.290852,-4.2454499 -16.286487,-4.2454499 z"
     id="path8"
     inkscape:connector-curvature="0"
     style="fill:url(#SVGID_1_);stroke:#bab032;stroke-width:2.83029962" /><linearGradient
     id="SVGID_2_"
     gradientUnits="userSpaceOnUse"
     x1="669.80078"
     y1="695.24609"
     x2="682.67688"
     y2="696.30872"
     gradientTransform="matrix(0.9434332,0,0,0.9434332,-626.12025,-631.072)"><stop
       offset="0"
       style="stop-color:#FFFFFF"
       id="stop11" /><stop
       offset="1"
       style="stop-color:#FFFFFF;stop-opacity:0"
       id="stop13" /></linearGradient><path
     enable-background="new    "
     d="m 12.098162,45.372437 0,-4.923777 0,-23.502808 0,-4.923778 c 0,-2.2595225 7.024804,-4.0897827 15.691181,-4.0897827 3.95959,0 7.567278,0.3858641 10.329651,1.0170212 C 36.688749,7.073767 30.346991,5.6605041 22.731598,5.6605041 c -8.666377,0 -15.6902382,1.8312038 -15.6902382,4.0907264 l 0,4.9237775 0,23.501864 0,4.926609 c 0,1.227406 2.0812138,2.323676 5.3615312,3.073705 -0.197177,-0.263218 -0.304729,-0.530209 -0.304729,-0.804749 z"
     id="path15"
     inkscape:connector-curvature="0"
     style="opacity:0.6;fill:url(#SVGID_2_)" /><path
     d="m 22.686313,30.076555 c -8.112582,0 -14.8298269,-2.035929 -16.1421425,-4.704901 -0.1528362,0.309446 -0.2500098,0.626439 -0.2500098,0.95098 0,3.121821 7.3389673,5.654939 16.3921523,5.654939 9.054129,0 16.393096,-2.533118 16.393096,-5.654939 0,-0.324541 -0.09812,-0.641534 -0.250954,-0.95098 -1.311372,2.668972 -8.02956,4.704901 -16.142142,4.704901 z"
     id="path17"
     inkscape:connector-curvature="0"
     style="fill:#bab032" /><path
     d="m 22.686313,14.840109 c -8.112582,0 -14.8298269,-2.035929 -16.1421425,-4.703958 -0.1528362,0.309446 -0.2500098,0.626439 -0.2500098,0.950037 0,3.122764 7.3389673,5.653995 16.3921523,5.653995 9.054129,0 16.393096,-2.531231 16.393096,-5.653995 0,-0.324541 -0.09812,-0.640591 -0.250954,-0.950037 -1.311372,2.668029 -8.02956,4.703958 -16.142142,4.703958 z"
     id="path19"
     inkscape:connector-curvature="0"
     style="fill:#bab032" /><g
     id="g20072_1_"
     transform="matrix(0.64026094,0,0,0.64026094,-781.74899,160.8647)"><path
       id="path20021_1_"
       d="m 1295.165,-201.418 c 0.109,0.25 0.201,0.508 0.273,0.771 1.586,5.651 -9.676,15.691 -19.822,18.57 -9.889,2.813 -19.171,0.745 -21.102,-4.596 0,0.118 0,0.233 0.01,0.354 1.993,6.989 9.272,11.565 19.878,9.71 10.608,-1.852 21.087,-11.309 21.668,-18.577 0.19,-2.347 0.052,-4.474 -0.904,-6.232 l 0,0 z"
       inkscape:connector-curvature="0"
       style="fill:#ac772b" /><path
       id="path20019_1_"
       d="m 1295.683,-200.231 c 1.594,5.651 -9.713,15.688 -19.924,18.57 -10.211,2.881 -19.784,0.633 -21.38,-5.019 -1.597,-5.651 5.389,-12.574 15.601,-15.455 10.211,-2.882 24.109,-3.753 25.703,1.904 z"
       inkscape:connector-curvature="0"
       style="fill:#5c2813" /><path
       id="path20047_1_"
       d="m 1295.781,-199.847 c -0.348,5.402 -11.503,14.433 -20.972,17.081 -6.944,1.941 -13.606,1.652 -17.907,-0.386 3.828,2.921 11.164,3.661 18.863,1.488 9.981,-2.816 21.199,-12.605 20.016,-18.183 z"
       inkscape:connector-curvature="0"
       style="fill:#7e361a" /></g><linearGradient
     id="SVGID_3_"
     gradientUnits="userSpaceOnUse"
     x1="281.5361"
     y1="393.46191"
     x2="283.38831"
     y2="397.34839"
     gradientTransform="matrix(1.4660952,-0.5211525,0.76814331,2.1608394,-685.9758,-672.63608)"><stop
       offset="0"
       style="stop-color:#FFFFFF"
       id="stop26" /><stop
       offset="1"
       style="stop-color:#FFFFFF;stop-opacity:0"
       id="stop28" /></linearGradient><path
     enable-background="new    "
     d="m 39.653959,32.116258 c 0.543418,1.533078 -2.415189,3.986005 -6.605919,5.474742 -4.193561,1.490625 -8.037107,1.455718 -8.581468,-0.07547 -0.545305,-1.534966 2.413302,-3.982232 6.607806,-5.474743 4.19073,-1.488738 8.034277,-1.457604 8.579581,0.07548 z"
     id="path30"
     inkscape:connector-curvature="0"
     style="opacity:0.6;fill:url(#SVGID_3_)" /></svg>