<?xml version="1.0" encoding="utf-8"?>
<!-- Generator: Adobe Illustrator 14.0.0, SVG Export Plug-In . SVG Version: 6.00 Build 43363)  -->
<!DOCTYPE svg PUBLIC "-//W3C//DTD SVG 1.1//EN" "http://www.w3.org/Graphics/SVG/1.1/DTD/svg11.dtd">
<svg version="1.1" id="Layer_1" xmlns="http://www.w3.org/2000/svg" xmlns:xlink="http://www.w3.org/1999/xlink" x="0px" y="0px"
	 width="50px" height="50px" viewBox="0 0 50 50" enable-background="new 0 0 50 50" xml:space="preserve">
<g>
	<g>
		<g>
			<g>
				<g>
					<g>
						<defs>
							<rect id="SVGID_1_" y="-0.26" width="50" height="50.26"/>
						</defs>
						<clipPath id="SVGID_2_">
							<use xlink:href="#SVGID_1_"  overflow="visible"/>
						</clipPath>
						
							<line clip-path="url(#SVGID_2_)" fill="none" stroke="#000000" stroke-width="3" stroke-dasharray="4,4,4,4,4,4" x1="40.05" y1="32.725" x2="-7.062" y2="32.725"/>
					</g>
				</g>
			</g>
		</g>
	</g>
	<g>
		<g>
			<g>
				<g>
					<g>
						<defs>
							<rect id="SVGID_3_" y="-0.26" width="50" height="50.26"/>
						</defs>
						<clipPath id="SVGID_4_">
							<use xlink:href="#SVGID_3_"  overflow="visible"/>
						</clipPath>
						<polygon clip-path="url(#SVGID_4_)" fill="#010101" points="38.775,36.542 45.389,32.729 38.775,28.904 36.271,27.463 
							36.271,25.089 42.881,28.904 49.493,32.729 42.881,36.542 36.271,40.357 36.271,37.986 						"/>
					</g>
				</g>
			</g>
		</g>
	</g>
	<g>
		<g>
			<g>
				<g>
					<g>
						<defs>
							<rect id="SVGID_5_" y="-0.26" width="50" height="50.26"/>
						</defs>
						<clipPath id="SVGID_6_">
							<use xlink:href="#SVGID_5_"  overflow="visible"/>
						</clipPath>
					</g>
				</g>
			</g>
		</g>
	</g>
	<g>
		<g>
			<g>
				<g>
					<g>
						<defs>
							<rect id="SVGID_7_" y="-0.26" width="50" height="50.26"/>
						</defs>
						<clipPath id="SVGID_8_">
							<use xlink:href="#SVGID_7_"  overflow="visible"/>
						</clipPath>
					</g>
				</g>
			</g>
		</g>
	</g>
	<g>
		<g>
			<g>
				<g>
					<g>
						<defs>
							<rect id="SVGID_9_" y="-0.26" width="50" height="50.26"/>
						</defs>
						<clipPath id="SVGID_10_">
							<use xlink:href="#SVGID_9_"  overflow="visible"/>
						</clipPath>
					</g>
				</g>
			</g>
		</g>
	</g>
	<g>
		<g>
			<g>
				<g>
					<g>
						<defs>
							<rect id="SVGID_11_" y="-0.26" width="50" height="50.26"/>
						</defs>
						<clipPath id="SVGID_12_">
							<use xlink:href="#SVGID_11_"  overflow="visible"/>
						</clipPath>
					</g>
				</g>
			</g>
		</g>
	</g>
	<g>
		<g>
			<g>
				<g>
					<g>
						<defs>
							<rect id="SVGID_13_" y="-0.26" width="50" height="50.26"/>
						</defs>
						<clipPath id="SVGID_14_">
							<use xlink:href="#SVGID_13_"  overflow="visible"/>
						</clipPath>
						<g clip-path="url(#SVGID_14_)">
							<g enable-background="new    ">
								<path d="M18.001,13.856h2.496v1.397c0.893-1.085,1.956-1.628,3.189-1.628c0.655,0,1.224,0.135,1.706,0.405
									c0.481,0.27,0.877,0.678,1.185,1.224c0.45-0.546,0.937-0.954,1.455-1.224c0.521-0.27,1.075-0.405,1.667-0.405
									c0.752,0,1.388,0.153,1.908,0.458s0.908,0.753,1.166,1.344c0.187,0.438,0.278,1.144,0.278,2.12v6.542h-2.708V18.24
									c0-1.015-0.093-1.67-0.279-1.966c-0.25-0.385-0.635-0.578-1.155-0.578c-0.38,0-0.735,0.116-1.069,0.347
									s-0.574,0.57-0.723,1.017c-0.146,0.447-0.223,1.151-0.223,2.115v4.914h-2.708v-5.608c0-0.996-0.048-1.638-0.145-1.927
									c-0.097-0.289-0.246-0.504-0.448-0.646c-0.202-0.141-0.477-0.212-0.824-0.212c-0.417,0-0.793,0.112-1.127,0.337
									c-0.334,0.225-0.573,0.549-0.718,0.973c-0.145,0.424-0.217,1.127-0.217,2.11v4.972H18L18.001,13.856L18.001,13.856z"/>
							</g>
						</g>
					</g>
				</g>
			</g>
		</g>
	</g>
</g>
<polygon points="8.167,22.479 4.135,18.819 8.167,15.156 9.695,13.77 9.695,11.494 5.663,15.156 1.629,18.819 5.663,22.479 
	9.695,26.141 9.695,23.867 "/>
<polygon points="14.917,22.479 10.885,18.819 14.917,15.156 16.445,13.77 16.445,11.494 12.413,15.156 8.379,18.819 12.413,22.479 
	16.445,26.141 16.445,23.867 "/>
<polygon points="40.963,23.867 40.963,26.141 44.994,22.479 49.027,18.819 44.994,15.156 40.963,11.494 40.963,13.77 42.49,15.156 
	46.522,18.819 42.49,22.479 "/>
<polygon points="34.213,23.867 34.213,26.141 38.244,22.479 42.277,18.819 38.244,15.156 34.213,11.494 34.213,13.77 35.74,15.156 
	39.772,18.819 35.74,22.479 "/>
</svg>
