<?xml version="1.0" encoding="utf-8"?>
<!-- Generator: Adobe Illustrator 14.0.0, SVG Export Plug-In . SVG Version: 6.00 Build 43363)  -->
<!DOCTYPE svg PUBLIC "-//W3C//DTD SVG 1.1//EN" "http://www.w3.org/Graphics/SVG/1.1/DTD/svg11.dtd">
<svg version="1.1" id="Layer_1" xmlns="http://www.w3.org/2000/svg" xmlns:xlink="http://www.w3.org/1999/xlink" x="0px" y="0px"
	 width="50px" height="50px" viewBox="0 0 50 50" enable-background="new 0 0 50 50" xml:space="preserve">
<g>
	<g>
		<g>
			<g>
				<g>
					<g>
						<g>
							<defs>
								<rect id="SVGID_1_" y="-0.26" width="50" height="50.26"/>
							</defs>
							<clipPath id="SVGID_2_">
								<use xlink:href="#SVGID_1_"  overflow="visible"/>
							</clipPath>
							
								<line clip-path="url(#SVGID_2_)" fill="none" stroke="#000000" stroke-width="3" stroke-dasharray="4,4,4,4,4,4" x1="40.05" y1="32.725" x2="-7.062" y2="32.725"/>
						</g>
					</g>
				</g>
			</g>
		</g>
	</g>
	<g>
		<g>
			<g>
				<g>
					<g>
						<g>
							<defs>
								<rect id="SVGID_3_" y="-0.26" width="50" height="50.26"/>
							</defs>
							<clipPath id="SVGID_4_">
								<use xlink:href="#SVGID_3_"  overflow="visible"/>
							</clipPath>
							<polygon clip-path="url(#SVGID_4_)" fill="#010101" points="38.775,36.542 45.389,32.729 38.775,28.904 36.271,27.463 
								36.271,25.089 42.881,28.904 49.493,32.729 42.881,36.542 36.271,40.357 36.271,37.986 							"/>
						</g>
					</g>
				</g>
			</g>
		</g>
	</g>
	<g>
		<g>
			<g>
				<g>
					<g>
						<g>
							<defs>
								<rect id="SVGID_5_" y="-0.26" width="50" height="50.26"/>
							</defs>
							<clipPath id="SVGID_6_">
								<use xlink:href="#SVGID_5_"  overflow="visible"/>
							</clipPath>
						</g>
					</g>
				</g>
			</g>
		</g>
	</g>
	<g>
		<g>
			<g>
				<g>
					<g>
						<g>
							<defs>
								<rect id="SVGID_7_" y="-0.26" width="50" height="50.26"/>
							</defs>
							<clipPath id="SVGID_8_">
								<use xlink:href="#SVGID_7_"  overflow="visible"/>
							</clipPath>
						</g>
					</g>
				</g>
			</g>
		</g>
	</g>
	<g>
		<g>
			<g>
				<g>
					<g>
						<g>
							<defs>
								<rect id="SVGID_9_" y="-0.26" width="50" height="50.26"/>
							</defs>
							<clipPath id="SVGID_10_">
								<use xlink:href="#SVGID_9_"  overflow="visible"/>
							</clipPath>
						</g>
					</g>
				</g>
			</g>
		</g>
	</g>
	<g>
		<g>
			<g>
				<g>
					<g>
						<g>
							<defs>
								<rect id="SVGID_11_" y="-0.26" width="50" height="50.26"/>
							</defs>
							<clipPath id="SVGID_12_">
								<use xlink:href="#SVGID_11_"  overflow="visible"/>
							</clipPath>
						</g>
					</g>
				</g>
			</g>
		</g>
	</g>
	<g>
		<g>
			<g>
				<g>
					<g>
						<g>
							<defs>
								<rect id="SVGID_13_" y="-0.26" width="50" height="50.26"/>
							</defs>
							<clipPath id="SVGID_14_">
								<use xlink:href="#SVGID_13_"  overflow="visible"/>
							</clipPath>
							<g clip-path="url(#SVGID_14_)">
								<path d="M21.333,24.468V9.82h1.635v1.376c0.387-0.539,0.821-0.942,1.307-1.211c0.486-0.27,1.074-0.404,1.765-0.404
									c0.903,0,1.701,0.232,2.394,0.698c0.691,0.466,1.213,1.122,1.565,1.969c0.353,0.848,0.526,1.777,0.526,2.787
									c0,1.083-0.192,2.059-0.582,2.926c-0.391,0.868-0.955,1.532-1.694,1.995c-0.742,0.462-1.521,0.693-2.34,0.693
									c-0.597,0-1.134-0.126-1.608-0.379c-0.476-0.252-0.866-0.572-1.172-0.958v5.155L21.333,24.468L21.333,24.468z
									 M22.958,15.175c0,1.363,0.276,2.37,0.828,3.021c0.551,0.651,1.22,0.978,2.003,0.978c0.799,0,1.48-0.337,2.049-1.012
									c0.569-0.675,0.854-1.72,0.854-3.136c0-1.349-0.276-2.359-0.834-3.031c-0.555-0.671-1.217-1.007-1.987-1.007
									c-0.763,0-1.441,0.357-2.028,1.072C23.253,12.773,22.958,13.812,22.958,15.175z"/>
							</g>
						</g>
					</g>
				</g>
			</g>
		</g>
	</g>
</g>
<polygon points="7.838,22.438 3.807,18.778 7.838,15.115 9.367,13.728 9.367,11.452 5.334,15.115 1.301,18.778 5.334,22.438 
	9.367,26.1 9.367,23.826 "/>
<polygon points="14.588,22.438 10.557,18.778 14.588,15.115 16.117,13.728 16.117,11.452 12.084,15.115 8.051,18.778 12.084,22.438 
	16.117,26.1 16.117,23.826 "/>
<polygon points="40.635,23.826 40.635,26.1 44.666,22.438 48.699,18.778 44.666,15.115 40.635,11.452 40.635,13.728 42.162,15.115 
	46.194,18.778 42.162,22.438 "/>
<polygon points="33.885,23.826 33.885,26.1 37.916,22.438 41.949,18.778 37.916,15.115 33.885,11.452 33.885,13.728 35.412,15.115 
	39.444,18.778 35.412,22.438 "/>
</svg>
