<?xml version="1.0" encoding="utf-8"?>
<!-- Generator: Adobe Illustrator 14.0.0, SVG Export Plug-In . SVG Version: 6.00 Build 43363)  -->
<!DOCTYPE svg PUBLIC "-//W3C//DTD SVG 1.1//EN" "http://www.w3.org/Graphics/SVG/1.1/DTD/svg11.dtd">
<svg version="1.1" id="Layer_1" xmlns="http://www.w3.org/2000/svg" xmlns:xlink="http://www.w3.org/1999/xlink" x="0px" y="0px"
	 width="50px" height="50px" viewBox="0 0 50 50" enable-background="new 0 0 50 50" xml:space="preserve">
<g>
	<g>
		<g>
			<g>
				<g>
					<g>
						<defs>
							<rect id="SVGID_1_" y="-0.26" width="50" height="50.26"/>
						</defs>
						<clipPath id="SVGID_2_">
							<use xlink:href="#SVGID_1_"  overflow="visible"/>
						</clipPath>
						
							<line clip-path="url(#SVGID_2_)" fill="none" stroke="#000000" stroke-width="3" stroke-dasharray="4,4,4,4,4,4" x1="40.05" y1="32.725" x2="-7.062" y2="32.725"/>
					</g>
				</g>
			</g>
		</g>
	</g>
	<g>
		<g>
			<g>
				<g>
					<g>
						<defs>
							<rect id="SVGID_3_" y="-0.26" width="50" height="50.26"/>
						</defs>
						<clipPath id="SVGID_4_">
							<use xlink:href="#SVGID_3_"  overflow="visible"/>
						</clipPath>
						<polygon clip-path="url(#SVGID_4_)" fill="#010101" points="38.775,36.542 45.389,32.729 38.775,28.904 36.271,27.463 
							36.271,25.089 42.881,28.904 49.493,32.729 42.881,36.542 36.271,40.357 36.271,37.986 						"/>
					</g>
				</g>
			</g>
		</g>
	</g>
	<g>
		<g>
			<g>
				<g>
					<g>
						<defs>
							<rect id="SVGID_5_" y="-0.26" width="50" height="50.26"/>
						</defs>
						<clipPath id="SVGID_6_">
							<use xlink:href="#SVGID_5_"  overflow="visible"/>
						</clipPath>
					</g>
				</g>
			</g>
		</g>
	</g>
	<g>
		<g>
			<g>
				<g>
					<g>
						<defs>
							<rect id="SVGID_7_" y="-0.26" width="50" height="50.26"/>
						</defs>
						<clipPath id="SVGID_8_">
							<use xlink:href="#SVGID_7_"  overflow="visible"/>
						</clipPath>
					</g>
				</g>
			</g>
		</g>
	</g>
	<g>
		<g>
			<g>
				<g>
					<g>
						<defs>
							<rect id="SVGID_9_" y="-0.26" width="50" height="50.26"/>
						</defs>
						<clipPath id="SVGID_10_">
							<use xlink:href="#SVGID_9_"  overflow="visible"/>
						</clipPath>
					</g>
				</g>
			</g>
		</g>
	</g>
	<g>
		<g>
			<g>
				<g>
					<g>
						<defs>
							<rect id="SVGID_11_" y="-0.26" width="50" height="50.26"/>
						</defs>
						<clipPath id="SVGID_12_">
							<use xlink:href="#SVGID_11_"  overflow="visible"/>
						</clipPath>
					</g>
				</g>
			</g>
		</g>
	</g>
	<g>
		<g>
			<g>
				<g>
					<g>
						<defs>
							<rect id="SVGID_13_" y="-0.26" width="50" height="50.26"/>
						</defs>
						<clipPath id="SVGID_14_">
							<use xlink:href="#SVGID_13_"  overflow="visible"/>
						</clipPath>
						<g clip-path="url(#SVGID_14_)">
							<g enable-background="new    ">
								<path d="M25.363,25.089h-3.587V11.534h3.332v1.927c0.57-0.911,1.082-1.511,1.539-1.8c0.453-0.29,0.973-0.434,1.551-0.434
									c0.816,0,1.604,0.225,2.361,0.676l-1.11,3.127c-0.604-0.392-1.166-0.587-1.685-0.587c-0.504,0-0.929,0.139-1.277,0.415
									c-0.35,0.277-0.623,0.776-0.823,1.5c-0.199,0.724-0.299,2.238-0.299,4.544L25.363,25.089L25.363,25.089z"/>
							</g>
						</g>
					</g>
				</g>
			</g>
		</g>
	</g>
</g>
<polygon points="7.838,22.729 3.807,19.069 7.838,15.406 9.367,14.02 9.367,11.744 5.334,15.406 1.301,19.069 5.334,22.729 
	9.367,26.391 9.367,24.117 "/>
<polygon points="14.588,22.729 10.557,19.069 14.588,15.406 16.117,14.02 16.117,11.744 12.084,15.406 8.051,19.069 12.084,22.729 
	16.117,26.391 16.117,24.117 "/>
<polygon points="40.635,24.117 40.635,26.391 44.666,22.729 48.699,19.069 44.666,15.406 40.635,11.744 40.635,14.02 42.162,15.406 
	46.194,19.069 42.162,22.729 "/>
<polygon points="33.885,24.117 33.885,26.391 37.916,22.729 41.949,19.069 37.916,15.406 33.885,11.744 33.885,14.02 35.412,15.406 
	39.444,19.069 35.412,22.729 "/>
</svg>
