<?xml version="1.0" encoding="utf-8"?>
<!-- Generator: Adobe Illustrator 14.0.0, SVG Export Plug-In . SVG Version: 6.00 Build 43363)  -->
<!DOCTYPE svg PUBLIC "-//W3C//DTD SVG 1.1//EN" "http://www.w3.org/Graphics/SVG/1.1/DTD/svg11.dtd">
<svg version="1.1" id="Layer_1" xmlns="http://www.w3.org/2000/svg" xmlns:xlink="http://www.w3.org/1999/xlink" x="0px" y="0px"
	 width="50px" height="50px" viewBox="0 0 50 50" enable-background="new 0 0 50 50" xml:space="preserve">
<g>
	<g>
		<g>
			<g>
				<g>
					<g>
						<defs>
							<rect id="SVGID_1_" y="-0.26" width="50" height="50.26"/>
						</defs>
						<clipPath id="SVGID_2_">
							<use xlink:href="#SVGID_1_"  overflow="visible"/>
						</clipPath>
						
							<line clip-path="url(#SVGID_2_)" fill="none" stroke="#000000" stroke-width="3" stroke-dasharray="4,4,4,4,4,4" x1="40.05" y1="32.725" x2="-7.062" y2="32.725"/>
					</g>
				</g>
			</g>
		</g>
	</g>
	<g>
		<g>
			<g>
				<g>
					<g>
						<defs>
							<rect id="SVGID_3_" y="-0.26" width="50" height="50.26"/>
						</defs>
						<clipPath id="SVGID_4_">
							<use xlink:href="#SVGID_3_"  overflow="visible"/>
						</clipPath>
						<polygon clip-path="url(#SVGID_4_)" fill="#010101" points="38.775,36.542 45.389,32.729 38.775,28.904 36.271,27.463 
							36.271,25.089 42.881,28.904 49.493,32.729 42.881,36.542 36.271,40.357 36.271,37.986 						"/>
					</g>
				</g>
			</g>
		</g>
	</g>
	<g>
		<g>
			<g>
				<g>
					<g>
						<defs>
							<rect id="SVGID_5_" y="-0.26" width="50" height="50.26"/>
						</defs>
						<clipPath id="SVGID_6_">
							<use xlink:href="#SVGID_5_"  overflow="visible"/>
						</clipPath>
					</g>
				</g>
			</g>
		</g>
	</g>
	<g>
		<g>
			<g>
				<g>
					<g>
						<defs>
							<rect id="SVGID_7_" y="-0.26" width="50" height="50.26"/>
						</defs>
						<clipPath id="SVGID_8_">
							<use xlink:href="#SVGID_7_"  overflow="visible"/>
						</clipPath>
					</g>
				</g>
			</g>
		</g>
	</g>
	<g>
		<g>
			<g>
				<g>
					<g>
						<defs>
							<rect id="SVGID_9_" y="-0.26" width="50" height="50.26"/>
						</defs>
						<clipPath id="SVGID_10_">
							<use xlink:href="#SVGID_9_"  overflow="visible"/>
						</clipPath>
					</g>
				</g>
			</g>
		</g>
	</g>
	<g>
		<g>
			<g>
				<g>
					<g>
						<defs>
							<rect id="SVGID_11_" y="-0.26" width="50" height="50.26"/>
						</defs>
						<clipPath id="SVGID_12_">
							<use xlink:href="#SVGID_11_"  overflow="visible"/>
						</clipPath>
					</g>
				</g>
			</g>
		</g>
	</g>
	<g>
		<g>
			<g>
				<g>
					<g>
						<defs>
							<rect id="SVGID_13_" y="-0.26" width="50" height="50.26"/>
						</defs>
						<clipPath id="SVGID_14_">
							<use xlink:href="#SVGID_13_"  overflow="visible"/>
						</clipPath>
						<g clip-path="url(#SVGID_14_)">
							<g enable-background="new    ">
								<path d="M19.807,21.547l3.236-0.494c0.138,0.627,0.417,1.104,0.838,1.428c0.421,0.327,1.01,0.488,1.768,0.488
									c0.834,0,1.461-0.153,1.883-0.459c0.283-0.214,0.425-0.501,0.425-0.861c0-0.245-0.077-0.447-0.229-0.608
									c-0.16-0.153-0.521-0.295-1.078-0.425c-2.603-0.574-4.25-1.098-4.947-1.572c-0.964-0.658-1.446-1.572-1.446-2.743
									c0-1.056,0.417-1.943,1.251-2.663c0.834-0.72,2.127-1.079,3.879-1.079c1.668,0,2.908,0.272,3.719,0.815
									c0.812,0.543,1.371,1.347,1.676,2.41l-3.041,0.562c-0.131-0.474-0.377-0.838-0.739-1.09
									c-0.365-0.252-0.883-0.379-1.556-0.379c-0.849,0-1.458,0.119-1.825,0.356c-0.245,0.168-0.367,0.386-0.367,0.654
									c0,0.229,0.107,0.425,0.321,0.585c0.291,0.214,1.295,0.516,3.013,0.907c1.717,0.39,2.916,0.868,3.599,1.435
									c0.672,0.574,1.01,1.373,1.01,2.398c0,1.117-0.467,2.078-1.4,2.881c-0.934,0.803-2.314,1.207-4.145,1.207
									c-1.661,0-2.975-0.336-3.942-1.01C20.738,23.616,20.105,22.702,19.807,21.547z"/>
							</g>
						</g>
					</g>
				</g>
			</g>
		</g>
	</g>
</g>
<polygon points="7.838,22.271 3.807,18.611 7.838,14.948 9.367,13.562 9.367,11.286 5.334,14.948 1.301,18.611 5.334,22.271 
	9.367,25.933 9.367,23.659 "/>
<polygon points="14.588,22.271 10.557,18.611 14.588,14.948 16.117,13.562 16.117,11.286 12.084,14.948 8.051,18.611 12.084,22.271 
	16.117,25.933 16.117,23.659 "/>
<polygon points="40.635,23.659 40.635,25.933 44.666,22.271 48.699,18.611 44.666,14.948 40.635,11.286 40.635,13.562 
	42.162,14.948 46.194,18.611 42.162,22.271 "/>
<polygon points="33.885,23.659 33.885,25.933 37.916,22.271 41.949,18.611 37.916,14.948 33.885,11.286 33.885,13.562 
	35.412,14.948 39.444,18.611 35.412,22.271 "/>
</svg>
