<?xml version="1.0" encoding="utf-8"?>
<!-- Generator: Adobe Illustrator 14.0.0, SVG Export Plug-In . SVG Version: 6.00 Build 43363)  -->
<!DOCTYPE svg PUBLIC "-//W3C//DTD SVG 1.1//EN" "http://www.w3.org/Graphics/SVG/1.1/DTD/svg11.dtd">
<svg version="1.1" id="Layer_1" xmlns="http://www.w3.org/2000/svg" xmlns:xlink="http://www.w3.org/1999/xlink" x="0px" y="0px"
	 width="50px" height="50px" viewBox="0 0 50 50" enable-background="new 0 0 50 50" xml:space="preserve">
<g>
	<g>
		<g>
			<g>
				<g>
					<g>
						<defs>
							<rect id="SVGID_1_" y="-0.26" width="50" height="50.26"/>
						</defs>
						<clipPath id="SVGID_2_">
							<use xlink:href="#SVGID_1_"  overflow="visible"/>
						</clipPath>
						
							<line clip-path="url(#SVGID_2_)" fill="none" stroke="#000000" stroke-width="3" stroke-dasharray="4,4,4,4,4,4" x1="40.05" y1="32.725" x2="-7.062" y2="32.725"/>
					</g>
				</g>
			</g>
		</g>
	</g>
	<g>
		<g>
			<g>
				<g>
					<g>
						<defs>
							<rect id="SVGID_3_" y="-0.26" width="50" height="50.26"/>
						</defs>
						<clipPath id="SVGID_4_">
							<use xlink:href="#SVGID_3_"  overflow="visible"/>
						</clipPath>
						<polygon clip-path="url(#SVGID_4_)" fill="#010101" points="38.775,36.542 45.389,32.729 38.775,28.904 36.271,27.463 
							36.271,25.089 42.881,28.904 49.493,32.729 42.881,36.542 36.271,40.357 36.271,37.986 						"/>
					</g>
				</g>
			</g>
		</g>
	</g>
	<g>
		<g>
			<g>
				<g>
					<g>
						<defs>
							<rect id="SVGID_5_" y="-0.26" width="50" height="50.26"/>
						</defs>
						<clipPath id="SVGID_6_">
							<use xlink:href="#SVGID_5_"  overflow="visible"/>
						</clipPath>
					</g>
				</g>
			</g>
		</g>
	</g>
	<g>
		<g>
			<g>
				<g>
					<g>
						<defs>
							<rect id="SVGID_7_" y="-0.26" width="50" height="50.26"/>
						</defs>
						<clipPath id="SVGID_8_">
							<use xlink:href="#SVGID_7_"  overflow="visible"/>
						</clipPath>
					</g>
				</g>
			</g>
		</g>
	</g>
	<g>
		<g>
			<g>
				<g>
					<g>
						<defs>
							<rect id="SVGID_9_" y="-0.26" width="50" height="50.26"/>
						</defs>
						<clipPath id="SVGID_10_">
							<use xlink:href="#SVGID_9_"  overflow="visible"/>
						</clipPath>
					</g>
				</g>
			</g>
		</g>
	</g>
	<g>
		<g>
			<g>
				<g>
					<g>
						<defs>
							<rect id="SVGID_11_" y="-0.26" width="50" height="50.26"/>
						</defs>
						<clipPath id="SVGID_12_">
							<use xlink:href="#SVGID_11_"  overflow="visible"/>
						</clipPath>
					</g>
				</g>
			</g>
		</g>
	</g>
	<g>
		<g>
			<g>
				<g>
					<g>
						<defs>
							<rect id="SVGID_13_" y="-0.26" width="50" height="50.26"/>
						</defs>
						<clipPath id="SVGID_14_">
							<use xlink:href="#SVGID_13_"  overflow="visible"/>
						</clipPath>
						<g clip-path="url(#SVGID_14_)">
							<g enable-background="new    ">
								<path d="M28.467,12.317v2.678h-2.295v5.117c0,1.036,0.021,1.641,0.064,1.812c0.046,0.171,0.145,0.312,0.301,0.424
									c0.154,0.111,0.344,0.167,0.566,0.167c0.312,0,0.762-0.107,1.352-0.323l0.287,2.606c-0.781,0.334-1.666,0.502-2.654,0.502
									c-0.605,0-1.151-0.101-1.637-0.306c-0.486-0.202-0.843-0.465-1.07-0.789c-0.227-0.321-0.384-0.758-0.472-1.308
									c-0.072-0.391-0.107-1.18-0.107-2.367v-5.535H21.26v-2.678h1.542V9.794l3.371-1.96v4.483H28.467z"/>
							</g>
						</g>
					</g>
				</g>
			</g>
		</g>
	</g>
</g>
<polygon points="7.838,22.229 3.807,18.569 7.838,14.906 9.367,13.52 9.367,11.244 5.334,14.906 1.301,18.569 5.334,22.229 
	9.367,25.891 9.367,23.617 "/>
<polygon points="14.588,22.229 10.557,18.569 14.588,14.906 16.117,13.52 16.117,11.244 12.084,14.906 8.051,18.569 12.084,22.229 
	16.117,25.891 16.117,23.617 "/>
<polygon points="40.635,23.617 40.635,25.891 44.666,22.229 48.699,18.569 44.666,14.906 40.635,11.244 40.635,13.52 42.162,14.906 
	46.194,18.569 42.162,22.229 "/>
<polygon points="33.885,23.617 33.885,25.891 37.916,22.229 41.949,18.569 37.916,14.906 33.885,11.244 33.885,13.52 35.412,14.906 
	39.444,18.569 35.412,22.229 "/>
</svg>
