<?xml version="1.0" encoding="utf-8"?>
<!-- Generator: Adobe Illustrator 14.0.0, SVG Export Plug-In . SVG Version: 6.00 Build 43363)  -->
<!DOCTYPE svg PUBLIC "-//W3C//DTD SVG 1.1//EN" "http://www.w3.org/Graphics/SVG/1.1/DTD/svg11.dtd">
<svg version="1.1" id="Layer_1" xmlns="http://www.w3.org/2000/svg" xmlns:xlink="http://www.w3.org/1999/xlink" x="0px" y="0px"
	 width="50px" height="50px" viewBox="0 0 50 50" enable-background="new 0 0 50 50" xml:space="preserve">
<g>
	<g>
		<g>
			<defs>
				<rect id="SVGID_1_" y="-0.26" width="50" height="50.26"/>
			</defs>
			<clipPath id="SVGID_2_">
				<use xlink:href="#SVGID_1_"  overflow="visible"/>
			</clipPath>
			
				<line clip-path="url(#SVGID_2_)" fill="none" stroke="#000000" stroke-width="3" stroke-dasharray="4,4,4,4,4,4" x1="40.05" y1="32.725" x2="-7.062" y2="32.725"/>
		</g>
	</g>
	<g>
		<g>
			<defs>
				<rect id="SVGID_3_" y="-0.26" width="50" height="50.26"/>
			</defs>
			<clipPath id="SVGID_4_">
				<use xlink:href="#SVGID_3_"  overflow="visible"/>
			</clipPath>
			<polygon clip-path="url(#SVGID_4_)" fill="#010101" points="38.775,36.542 45.389,32.729 38.775,28.904 36.271,27.463 
				36.271,25.089 42.881,28.904 49.493,32.729 42.881,36.542 36.271,40.357 36.271,37.986 			"/>
		</g>
	</g>
	<g>
		<g>
			<defs>
				<rect id="SVGID_5_" y="-0.26" width="50" height="50.26"/>
			</defs>
			<clipPath id="SVGID_6_">
				<use xlink:href="#SVGID_5_"  overflow="visible"/>
			</clipPath>
		</g>
	</g>
	<g>
		<g>
			<defs>
				<rect id="SVGID_7_" y="-0.26" width="50" height="50.26"/>
			</defs>
			<clipPath id="SVGID_8_">
				<use xlink:href="#SVGID_7_"  overflow="visible"/>
			</clipPath>
		</g>
	</g>
	<g>
		<g>
			<defs>
				<rect id="SVGID_9_" y="-0.26" width="50" height="50.26"/>
			</defs>
			<clipPath id="SVGID_10_">
				<use xlink:href="#SVGID_9_"  overflow="visible"/>
			</clipPath>
		</g>
	</g>
	<g>
		<g>
			<defs>
				<rect id="SVGID_11_" y="-0.26" width="50" height="50.26"/>
			</defs>
			<clipPath id="SVGID_12_">
				<use xlink:href="#SVGID_11_"  overflow="visible"/>
			</clipPath>
		</g>
	</g>
	<g>
		<g>
			<defs>
				<rect id="SVGID_13_" y="-0.26" width="50" height="50.26"/>
			</defs>
			<clipPath id="SVGID_14_">
				<use xlink:href="#SVGID_13_"  overflow="visible"/>
			</clipPath>
			<g clip-path="url(#SVGID_14_)">
				<g enable-background="new    ">
					<path d="M19.25,10.387h2.962v7.946c0,1.261,0.037,2.079,0.11,2.452c0.127,0.601,0.429,1.083,0.906,1.447
						c0.477,0.363,1.129,0.544,1.957,0.544c0.84,0,1.475-0.171,1.901-0.516c0.428-0.343,0.686-0.765,0.771-1.266
						c0.086-0.5,0.131-1.331,0.131-2.492v-8.117h2.962v7.706c0,1.762-0.08,3.006-0.24,3.733c-0.16,0.728-0.456,1.341-0.885,1.842
						c-0.433,0.5-1.007,0.899-1.728,1.195c-0.722,0.297-1.662,0.446-2.823,0.446c-1.401,0-2.464-0.162-3.188-0.486
						c-0.724-0.323-1.296-0.743-1.716-1.261c-0.42-0.516-0.697-1.059-0.831-1.625c-0.193-0.841-0.29-2.082-0.29-3.723V10.387z"/>
				</g>
			</g>
		</g>
	</g>
</g>
<polygon points="7.838,22.438 3.807,18.778 7.838,15.115 9.367,13.728 9.367,11.452 5.334,15.115 1.301,18.778 5.334,22.438 
	9.367,26.099 9.367,23.826 "/>
<polygon points="14.588,22.438 10.557,18.778 14.588,15.115 16.117,13.728 16.117,11.452 12.084,15.115 8.051,18.778 12.084,22.438 
	16.117,26.099 16.117,23.826 "/>
<polygon points="40.635,23.826 40.635,26.099 44.666,22.438 48.699,18.778 44.666,15.115 40.635,11.452 40.635,13.728 
	42.162,15.115 46.194,18.778 42.162,22.438 "/>
<polygon points="33.885,23.826 33.885,26.099 37.916,22.438 41.949,18.778 37.916,15.115 33.885,11.452 33.885,13.728 
	35.412,15.115 39.444,18.778 35.412,22.438 "/>
</svg>
